<svg xmlns="http://www.w3.org/2000/svg" version="1.1" xmlns:xlink="http://www.w3.org/1999/xlink" viewBox="0 0 1422 800" style="overflow: hidden; display: block;" width="1422" height="800"><defs></defs><g id="two-0" transform="matrix(1 0 0 1 0 0)" opacity="1"></g><path d="M 927.7168789507932 213.2463995081619 Q 927.7168789507932 213.2463995081619 922.5081692548221 210.19416537555097 917.2994595588509 207.14193124294005 903.4771435602546 198.93261125103987 889.6548275616583 190.72329125913967 880.8871494694727 186.67112613582216 872.119471377287 182.61896101250466 861.4921358316333 178.91591520071924 850.8648002859796 175.21286938893383 839.2055559254609 171.97938426612745 827.546311564942 168.74589914332108 814.725707478414 166.12296521603247 801.9051033918862 163.50003128874383 788.0960178910273 162.2805225440036 774.2869323901683 161.06101379926335 759.6056465646013 161.08292204932292 744.9243607390345 161.10483029938248 729.4789077116666 162.98421752744628 714.0334546842988 164.8636047555101 697.7832997372725 169.26824121349108 681.5331447902462 173.67287767147207 665.0356279149751 180.19804855997052 648.538111039704 186.72321944846894 632.376059154264 195.2772378405113 616.214007268824 203.83125623255367 600.7513611755401 214.12765313861775 585.2887150822562 224.4240500446818 571.0724453235985 236.2260068659403 556.8561755649408 248.0279636871988 544.0493517710304 261.6205957134185 531.2425279771201 275.21322773963817 520.4046891182304 290.35395120482616 509.56685025934075 305.49467467001415 500.8723750945485 322.24638281859836 492.17789992975617 338.99809096718263 485.74256428222213 356.74013539090663 479.30722863468804 374.4821798146307 475.4922934058398 392.6786410094576 471.67735817699156 410.87510220428453 470.4853883286635 428.95200306577397 469.2934184803354 447.0289039272634 471.2013771198591 464.94913060250957 473.1093357593829 482.86935727775574 477.9961318570438 501.00964656164973 482.8829279547047 519.1499358455437 490.44581728330564 536.7619147961761 498.0087066119066 554.3738937468086 508.4594943505201 570.8350799981737 518.9102820891337 587.2962662495388 532.2015375734602 602.2431072296173 545.4927930577867 617.1899482096958 560.9220641239078 630.3652173382114 576.3513351900291 643.5404864667271 593.5785792354015 654.6793946957844 610.805823280774 665.8183029248416 629.3260771679657 674.2632989153299 647.8463310551572 682.7082949058182 667.1507721612456 688.7343339986674 686.455213267334 694.7603730915166 705.7849708508721 697.7994012107285 725.1147284344103 700.8384293299405 744.4981710798106 700.9917848041622 763.8816137252111 701.1451402783839 782.6301526294471 698.7047631154502 801.3786915336833 696.2643859525165 819.3931896862272 691.2110880712544 837.407687838771 686.1577901899924 854.4146088457142 678.4820727134079 871.4215298526573 670.8063552368233 887.0211645802694 660.9507281428612 902.6207993078817 651.0951010488992 916.9515323453961 639.1558932107118 931.2822653829106 627.2166853725245 943.9525115717344 613.2880060785511 956.6227577605581 599.3593267845778 967.41335363692 584.3825815822672 978.2039495132819 569.4058363799567 986.8561086337864 553.4764159181789 995.508267754291 537.5469954564012 1001.9022742263314 521.3583947052456 1008.296280698372 505.16979395409004 1012.5551371617294 489.02576395828726 1016.8139936250867 472.8817339624844 1019.2688828650424 456.74726028266184 1021.7237721049981 440.6127866028393 1022.6101695153675 424.47671737222845 1023.4965669257367 408.3406481416176 1022.7525644569703 392.70940976153855 1022.0085619882038 377.0781713814595 1019.8300872345956 362.2699046425399 1017.6516124809874 347.4616379036203 1013.9500595376041 333.0467330400111 1010.2485065942208 318.63182817640177 1005.1991000718783 305.4583365683126 1000.1496935495358 292.2848449602233 993.6441234497518 280.0215517710518 987.1385533499679 267.7582585818803 979.313601166551 256.3686343601018 971.4886489831343 244.97901013832328 962.4528415590592 234.46573698437243 953.4170341349841 223.95246383042158 943.2952413832528 214.83169052164897 933.1734486315215 205.71091721287638 921.7906414731106 198.07226500020403 910.4078343146997 190.4336127875317 897.802529425489 184.07211872369805 885.1972245362781 177.71062465986444 871.5071995009914 173.0235172445152 857.8171744657046 168.33640982916597 843.2407037946357 165.0829337742533 828.6642331235668 161.8294577193406 813.5052278057485 160.36081255579958 798.3462224879304 158.89216739225856 782.7172963797395 159.19812763675662 767.0883702715488 159.5040878812547 751.6237971761678 161.81998969158633 736.1592240807869 164.13589150191797 721.0165197473023 168.39940529286446 705.8738154138177 172.66291908381095 691.4494361807435 178.825620116329 677.0250569476693 184.98832114884706 663.6268104581115 193.2336730628855 650.2285639685538 201.47902497692388 637.9733410487759 211.2986159931932 625.7181181289978 221.1182070094625 615.0951247758965 232.73583840911976 604.4721314227952 244.35346980877705 594.7136523970719 258.0935449485114 584.9551733713485 271.83362008824577 576.3171697813859 287.14816900683036 567.6791661914234 302.462717925415 560.3385412431722 318.486803216555 552.9979162949211 334.51088850769503 546.8613814913215 351.05063239833754 540.7248466877218 367.59037628898005 536.2055621869074 384.4484370127419 531.686277686093 401.30649773650384 528.8162392566239 418.655795010086 525.9462008271549 436.0050922836682 524.9963295567685 453.69633095582856 524.0464582863821 471.38756962798885 524.9748558829313 489.12859334327584 525.9032534794803 506.86961705856277 529.1474525505055 524.1031698734907 532.3916516215307 541.3367226884188 537.8099845819274 558.0284916659058 543.228317542324 574.7202606433927 550.9404677298418 590.509907820459 558.6526179173595 606.2995549975253 568.3201217015136 621.2620683240216 577.9876254856676 636.2245816505178 589.5760583870315 650.5727976758279 601.1644912883954 664.921013701138 614.3567469303046 677.5813982032091 627.5490025722138 690.2417827052803 642.3889375777815 700.9692486518761 657.228872583349 711.6967145984718 673.7317549995615 720.0621054414779 690.234637415774 728.427496284484 707.984913305824 734.1414665941207 725.735189195874 739.8554369037574 744.3762487489093 742.4427468639003 763.0173083019447 745.0300568240432 782.385329138298 744.6302767181121 801.7533499746512 744.230496612181 820.9818482470798 741.1500476896651 840.2103465195084 738.0695987671494 858.8256154232869 732.3079031929329 877.4408843270653 726.5462076187165 895.5867600019917 717.6466894983116 913.732635676918 708.7471713779067 930.4276778214883 697.5091977449406 947.1227199660585 686.2712241119744 962.2414122233398 672.6220034576552 977.3601044806211 658.9727828033359 990.6278311467947 643.0683572764566 1003.8955578129685 627.1639317495773 1015.1243187655598 609.7926466925594 1026.353079718151 592.4213616355414 1035.345919354208 573.7624686885622 1044.3387589902648 555.1035757415831 1051.227990953194 535.2308222714842 1058.1172229161232 515.3580688013853 1062.991121247307 495.49372923591227 1067.865019578491 475.6293896704392 1070.284517018356 456.3369465896103 1072.7040144582206 437.04450350878136 1072.8596756391587 418.1370908313928 1073.0153368200968 399.22967815400426 1070.8020431040845 381.1080335483666 1068.5887493880723 362.98638894272904 1063.9388619596525 345.92420088708525 1059.2889745312325 328.8620128314414 1052.1507786051234 312.80293468150916 1045.0125826790143 296.7438565315769 1035.3724821965816 282.635090381242 1025.7323817141487 268.52632423090705 1013.4927966233579 255.50985839347874 1001.253211532567 242.49339255605042 986.429812033914 231.26990330811907 971.6064125352611 220.04641406018771 954.8143254268016 210.79173366158798 938.0222383183421 201.53705326298825 919.3015061942522 194.21411031976527 900.5807740701623 186.8911673765423 880.4556233202632 181.94476884612214 860.330472570364 176.99837031570195 839.8434456241885 174.50150911268483 819.356418678013 172.0046479096677 798.6280984687262 172.02565377065935 777.8997782594394 172.04665963165095 757.2757529483351 175.09197195012996 736.651727637231 178.137284268609 716.9304100068443 183.419588531446 697.2090923764575 188.70189279428303 678.2642767939951 196.7862770707987 659.3194612115327 204.87066134731432 641.3621968544171 215.73233386414194 623.4049324973016 226.59400638096957 607.5844868715726 239.50039729257315 591.7640412458435 252.4067882041767 578.2341486498351 267.2748335960139 564.7042560538267 282.142878987851 554.0434721508911 298.66577243365475 543.3826882479556 315.1886658794585 535.4987565537779 332.9716362759382 527.6148248596002 350.75460667241794 522.723578875442 369.2151058821461 517.8323328912837 387.6756050918743 515.8414484803711 407.12086966858044 513.8505640694584 426.56613424528666 514.4629115734235 446.09122417265786 515.0752590773885 465.61631410002906 518.3192887888202 484.9240080109351 521.563318500252 504.23170192184114 527.4481219232421 522.9080936399753 533.3329253462322 541.5844853581093 541.1834491773969 559.152203930486 549.0339730085617 576.7199225028628 559.0013988127728 592.6730997316342 568.9688246169839 608.6262769604058 581.172310046554 622.4440590981134 593.3757954761242 636.261841235821 607.5087850773932 648.1154133694592 621.6417746786622 659.9689855030977 637.2239313232417 669.9163891250587 652.8060879678212 679.8637927470196 669.4625077258195 687.9278656281467 686.1189274838176 695.9919385092738 703.3986498242057 702.6889235392796 720.6783721645938 709.3859085692854 738.3230091015498 714.3215421106308 755.9676460385059 719.2571756519761 774.1043132667937 722.1944729787494 792.2409804950814 725.1317703055228 810.2172684183291 725.4275482850813 828.1935563415768 725.7233262646399 846.0760084229798 723.1574591084232 863.9584605043827 720.5915919522063 881.559953500659 714.989598804993 899.1614464969354 709.3876056577795 915.9476177108086 701.5191048952734 932.7337889246818 693.6506041327672 948.1199618697508 683.4385949774673 963.5061348148199 673.2265858221674 976.9488553385336 661.0511020455224 990.3915758622471 648.8756182688775 1001.6843635620169 634.5746496011343 1012.9771512617867 620.2736809333912 1022.0268711189474 604.1351023524355 1031.076590976108 587.9965237714799 1037.533377574924 570.7375672175908 1043.9901641737404 553.4786106637018 1047.8343591875393 535.155305363257 1051.6785542013383 516.832000062812 1052.8982810110047 497.9340517763559 1054.1180078206708 479.03610348989974 1053.3996937669663 460.0991335872959 1052.681379713262 441.1621636846921 1049.5861467221675 422.3187243004114 1046.4909137310729 403.4752849161307 1041.6317099068538 385.05905491092597 1036.772506082635 366.6428249057213 1029.6994544046015 349.13609519331834 1022.6264027265682 331.6293654809154 1013.6765282406507 315.4331148201279 1004.726653754733 299.23686415934037 993.7479573013246 285.26802275289367 982.7692608479163 271.2991813464469 969.7840047197983 259.11222377981755 956.7987485916804 246.9252662131882 941.859556997468 236.51923516640795 926.9203654032555 226.11320411962774 910.2990876314594 217.72055150533492 893.6778098596634 209.3278988910421 875.7749680201189 202.87216662384128 857.8721261805745 196.41643435664048 838.791131980799 191.86950721694748 819.7101377810237 187.32258007725449 799.97889297106 184.65477404509414 780.2476481610962 181.98696801293377 760.1023167241544 181.65572221188418 739.9569852872128 181.3244764108346 719.9473817711207 183.41158780959594 699.9377782550287 185.4986992083573 680.4258324251273 189.37809491869052 660.9138865952259 193.25749062902375 642.388633146466 199.60697413694632 623.863379697706 205.9564576448689 606.4511684599972 214.6034105756678 589.0389572222886 223.2503635064667 573.1845751154485 234.2745197472384 557.3301930086085 245.2986759880101 542.7834574703303 258.3541137534391 528.2367219320521 271.4095515188681 515.8811928341333 285.9240833666071 503.5256637362146 300.4386152143461 493.2457849135242 316.73056287286244 482.9659060908337 333.02251053137877 474.88504809337905 350.2040814619908 466.8041900959244 367.3856523926029 461.3231631687962 385.6125037996537 455.84213624166796 403.8393552067046 453.4303697015346 422.83431455575544 451.0186031614012 441.8292739048062 451.5513508605692 460.74470977652027 452.08409855973713 479.6601456482344 455.72113768146244 497.7605486721427 459.3581768031877 515.8609516960511 465.9769187445873 532.9242631722548 472.5956606859869 549.9875746484583 481.8987946334066 566.104972204952 491.2019285808264 582.2223697614455 503.19487808053054 597.4026638486848 515.1878275802346 612.5829579359241 529.6386456051614 626.3695906099506 544.0894636300882 640.1562232839769 560.6209755584517 652.4720617823477 577.1524874868153 664.7879002807185 595.1962228865152 675.0534868241791 613.2399582862153 685.3190733676398 632.2073280425602 693.6260870821131 651.1746977989052 701.9331007965865 670.5572216837456 708.0694747840639 689.939745568586 714.2058487715415 709.4369207564154 718.5189830590671 728.9340959442447 722.8321173465927 748.684105568143 725.076492201229 768.4341151920413 727.3208670558655 787.6723174693661 727.3432286510707 806.910519746691 727.3655902462759 825.7887570646722 725.2837715242844 844.6669943826532 723.2019528022928 862.8040631293272 719.1006047235619 880.9411318760012 714.999256644831 898.2701027185115 708.7149650733425 915.5990735610217 702.430673501854 931.6135833489567 693.8505828804884 947.6280931368917 685.270492259123 962.2645927730792 674.7436629073127 976.9010924092668 664.2168335555023 989.5129298783479 651.606269851681 1002.1247673474289 638.9957061478596 1012.844289756102 624.339178941285 1023.5638121647748 609.6826517347105 1032.196045764737 593.4978415826833 1040.8282793646993 577.3130314306562 1046.9723082791184 560.4837493251753 1053.1163371935372 543.6544672196944 1056.9644481392634 526.3322952086637 1060.8125590849893 509.010123197633 1062.020128998468 491.6125111730243 1063.2276989119466 474.2148991484156 1062.2690795699236 456.66546207337086 1061.3104602279006 439.1160249983261 1058.2764721150456 421.95700983735696 1055.2424840021904 404.7979946763878 1050.4330523709557 387.8856668023169 1045.623620739721 370.97333892824605 1039.4928097539546 354.70257982608183 1033.3619987681882 338.4318207239176 1025.8238673796418 323.6768075425522 1018.2857359910953 308.92179436118676 1009.0092310329624 295.25723364389256 999.7327260748295 281.59267292659837 988.9732495199585 269.9291030366196 978.2137729650873 258.2655331466408 965.8647816899722 248.25669229361233 953.5157904148571 238.2478514405839 939.5016075475557 229.67409654901275 925.4874246802543 221.10034165744156 909.8041991683169 214.30800519307775 894.1209736563795 207.51566872871396 876.9189683305758 202.4788120277694 859.7169630047722 197.44195532682485 841.4410382997723 194.65599518992366 823.1651135947725 191.87003505302243 803.6507580361417 191.9101815521443 784.136402477511 191.95032805126618 763.6206405833611 194.76894006877347 743.1048786892113 197.58755208628074 722.3516037069169 203.39788213332656 701.5983287246224 209.20821218037239 681.8334045368713 217.6947111071128 662.0684803491201 226.1812100338532 644.046002139187 237.77422204206601 626.0235239292538 249.36723405027885 609.9340753056755 264.19490634785643 593.8446266820972 279.022578645434 579.8434274629107 296.96936211097716 565.8422282437241 314.9161455765203 553.0022507752037 328.94574703226994 540.1622733066833 342.97534848801956 540.1581602313396 342.9725054946646 540.1540471559958 342.9696625013096 540.1499340806521 342.9668195079546 540.1458210053083 342.9639765145996 548.9069839030633 325.742320318859 557.6681468008182 308.5206641231184 572.2384719543483 289.9579159225152 586.8087971078783 271.395167721912 603.6051705104549 256.02044869441 620.4015439130314 240.64572966690804 639.1821444233889 228.64844779846953 657.9627449337463 216.651165930031 678.3812515501406 207.93294086154 698.799758166535 199.214715793049 720.2452968320746 193.26059688621254 741.6908354976142 187.30647797937607 762.9045165011439 184.43946025310987 784.1181975046736 181.5724425268437 804.420685877587 181.5913795178203 824.7231742505003 181.61031650879687 843.6777742525992 184.54612713082696 862.6323742546981 187.48193775285708 880.4413683637813 192.738186129388 898.2503624728644 197.99443450591892 914.5767499560409 205.12110423151523 930.9031374392174 212.24777395711152 945.4788295048927 221.21832464981605 960.0545215705679 230.18887534252062 972.9488982955902 240.70989388188852 985.8432750206124 251.23091242125642 997.0796874293183 263.4955193211983 1008.316099838024 275.7601262211402 1017.9218952688691 289.9802308397944 1027.5276906997142 304.2003354584486 1035.3004161137785 319.4855116258978 1043.0731415278428 334.770687793347 1049.340466238207 351.45495781398824 1055.6077909485712 368.1392278346295 1060.5355878859002 385.5678105277575 1065.4633848232293 402.9963932208856 1068.5683735851353 420.7744877265141 1071.6733623470416 438.55258223214264 1072.6269047997748 456.74647402504604 1073.580447252508 474.94036581794944 1072.2622254872108 493.0984301472617 1070.9440037219135 511.25649447657395 1066.9040300453407 529.236242884336 1062.8640563687677 547.2159912920981 1056.424486972945 564.7065416706168 1049.9849175771221 582.1970920491357 1040.9618376507524 599.0040711968039 1031.9387577243829 615.8110503444722 1020.7004340232429 631.0725715048304 1009.4621103221028 646.3340926651887 996.2147544800778 659.4850541604951 982.9673986380526 672.6360156558017 967.7469133260162 683.5278758269835 952.5264280139797 694.4197359981655 935.8336495859255 703.3024872351398 919.1408711578713 712.1852384721142 901.1860736187906 718.653387647171 883.2312760797099 725.121536822228 864.5173095922214 729.3197144348326 845.8033431047329 733.5178920474372 826.3501169130284 735.6309163562989 806.896890721324 737.7439406651607 787.079561889398 737.6883902204448 767.2622330574719 737.6328397757289 746.9776017683232 735.2992690743795 726.6929704791746 732.9656983730299 706.7483060038949 728.5324877965485 686.8036415286151 724.099277220067 666.9069967543455 717.7693428818795 647.0103519800758 711.4394085436919 627.5574592934316 702.8886692822828 608.1045666067874 694.3379300208736 589.5284618198896 683.7241837073261 570.9523570329916 673.1104373937787 553.937630260723 660.386564947946 536.9229034884545 647.6626925021133 521.9837851606973 633.3394509911113 507.04466683294 619.0162094801093 494.629170453423 603.2128402605863 482.213674073906 587.4094710410633 472.5667722680819 570.5738764290406 462.9198704622578 553.7382818170181 456.05298739778516 535.8244999492174 449.1861043333125 517.9107180814166 445.44896478056376 498.9358599005935 441.7118252278149 479.9610017197704 441.21787228262804 460.2417611398531 440.7239193374411 440.52252055993574 443.31317569476744 420.6908779417703 445.9024320520938 400.8592353236049 451.6566799005328 381.91675705919477 457.4109277489719 362.9742787947847 465.8010243977242 345.2276021980662 474.19112104647644 327.48092560134774 484.9064531242649 310.5972774686088 495.6217852020534 293.7136293358699 508.46265412560905 278.7005003773137 521.3035230491647 263.68737141875755 536.3564187111205 250.23130612885166 551.4093143730762 236.77524083894573 567.9142100048892 225.36653871804074 584.4191056367023 213.95783659713575 602.4590137814557 205.04839715815365 620.4989219262093 196.13895771917154 639.6913122895047 189.60951151949735 658.8837026528001 183.08006531982315 678.875104819255 179.1278206420945 698.8665069857097 175.17557596436583 719.4971115051869 173.0616227438573 740.1277160246641 170.94766952334876 760.8820649066838 171.3248598045736 781.6364137887034 171.70205008579845 801.8778392883562 174.46480910605356 822.119264788009 177.22756812630865 841.7573776668225 181.9410214876846 861.3954905456362 186.65447484906053 879.8776741432339 193.36017408114344 898.3598577408317 200.06587331322632 915.6062402964761 208.8320217897142 932.8526228521206 217.59817026620206 948.376946744643 228.4785689187534 963.9012706371655 239.35896757130473 977.415155826907 252.12327037395403 990.9290410166486 264.8875731766033 1002.3664865794466 279.5479399886218 1013.8039321422445 294.20830680064023 1023.0267877504907 310.9758820142141 1032.2496433587369 327.7434572277879 1039.5279213774127 345.867413555125 1046.8061993960885 363.99136988246204 1051.7697109959186 382.8953104839394 1056.7332225957484 401.7992510854167 1059.892588866357 421.2827279219347 1063.0519551369655 440.7662047584527 1063.7631585847716 460.2396634209925 1064.474362032578 479.71312208353226 1063.154630562456 499.3385331862156 1061.834899092334 518.9639442888989 1057.7724856159114 538.0388362254937 1053.7100721394888 557.1137281620884 1046.9192578446919 575.0925087441556 1040.128443549895 593.0712893262229 1030.6249853992435 609.8878758617075 1021.1215272485922 626.7044623971922 1009.2423180860399 641.633084589854 997.3631089234876 656.5617067825157 983.3047825153931 669.2167711846769 969.2464561072986 681.871835586838 953.1943762498888 692.4585201769787 937.1422963924789 703.0452047671196 919.7217965491312 711.1622153418256 902.3012967057836 719.2792259165316 883.8693436248248 725.0708629975331 865.437390543866 730.8625000785348 846.7329082565564 733.4808228408681 828.0284259692469 736.0991456032012 809.3082700592832 735.7380535436117 790.5881141493196 735.3769614840222 771.8802302230208 732.3144766867916 753.1723462967219 729.251991889561 735.0500585342443 724.1575125815098 716.9277707717667 719.0630332734584 699.2588515941582 712.1966473103653 681.5899324165495 705.3302613472721 664.4042248983071 696.9698789681233 647.2185173800647 688.6094965889746 631.0938221830146 678.2635007083652 614.9691269859645 667.9175048277557 600.2827015744783 655.523724711032 585.5962761629922 643.1299445943083 572.8849264701042 628.6314462028885 560.1735767772162 614.1329478114686 549.8672624521735 597.5454603414539 539.5609481271307 580.9579728714391 531.4969051421984 562.8282888157374 523.4328621572662 544.6986047600358 517.3810392442562 525.3256647072014 511.3292163312462 505.9527246543671 508.0158495648211 485.94749394088103 504.702482798396 465.94226322739496 504.1147611132375 445.7235798924036 503.52703942807904 425.5048965574123 505.6637950377906 405.2626982231445 507.8005506475021 385.0204998888767 512.963545054859 365.78649991922464 518.1265394622159 346.5524999495725 526.3943547084876 328.05812254726584 534.6621699547594 309.5637451449591 545.8428288380977 292.36457621940986 557.023487721436 275.1654072938606 571.1121975029109 259.7668242254503 585.2009072843858 244.36824115704005 601.6166232350729 231.041723444034 618.0323391857598 217.715205731028 636.6385723360659 206.52075339628755 655.244805486372 195.32630106154713 674.8815796012079 187.00267917891057 694.5183537160439 178.67905729627398 714.8297144981896 173.27429165998697 735.1410752803354 167.86952602369996 756.5120064275955 164.76929342143904 777.8829375748554 161.6690608191781 799.2473447162713 161.68586723391797 820.6117518576872 161.70267364865788 841.7107110179386 164.3116480377793 862.8096701781899 166.9206224269007 883.5852570637564 172.07336403258836 904.360843949323 177.22610563827598 923.6973946952003 184.83775143282372 943.0339454410774 192.4493972273715 960.4540367191523 202.1123645668341 977.8741279972271 211.77533190629669 993.3411918098818 223.57775654245722 1008.8082556225366 235.38018117861776 1021.5559141339463 249.0282820891341 1034.3035726453559 262.67638299965046 1044.3961958444688 277.59685218142647 1054.488819043582 292.5173213632025 1061.8946603993845 309.3240691160215 1069.300501755187 326.13081686884055 1074.094968077688 343.9278556381337 1078.8894344001892 361.72489440742675 1081.1412308738416 380.5191349832097 1083.393027347494 399.3133755589926 1083.197268870297 418.8251207080687 1083.0015103931 438.3368658571448 1080.4732074856147 458.21852909442407 1077.9449045781291 478.1001923317033 1072.9333844358584 498.43084953956964 1067.9218642935878 518.761506747436 1060.8044370057596 539.186379218937 1053.6870097179315 559.6112516904378 1044.3780870709902 578.8330174062392 1035.0691644240492 598.0547831220406 1023.4659092104837 615.934719018313 1011.8626539969182 633.8146549145855 998.0890777423256 650.2446855449616 984.3155014877328 666.6747161753377 968.6176366978317 680.7767806994271 952.9197719079306 694.8788452235166 935.6099300299418 706.4723586713225 918.300088151953 718.0658721191284 899.4075019948898 727.2617873005751 880.5149158378265 736.4577024820218 861.1842026991203 742.3870617387142 841.8534895604141 748.3164209954067 821.908797933029 751.461290788623 801.9641063056438 754.6061605818393 781.7773122631074 754.9573925154377 761.5905182205711 755.3086244490362 742.0775219874137 752.522118198675 722.5645257542562 749.7356119483138 704.0549434141603 743.7101706159835 685.5453610740645 737.6847292836533 668.3498424015065 728.8974603192064 651.1543237289485 720.1101913547595 635.7596265995999 708.920578840492 620.3649294702514 697.7309663262243 606.7286013458063 684.5872861837879 593.0922732213613 671.4436060413516 581.1801386956779 656.6483390914993 569.2680041699946 641.8530721416471 559.2963472841352 626.3510263371635 549.3246903982758 610.8489805326799 541.3414399857342 594.3876234728604 533.3581895731925 577.9262664130408 527.775220414652 560.590194287189 522.1922512561115 543.2541221613371 518.8659747847232 525.3349862982245 515.5396983133348 507.4158504351119 514.6114084552039 489.1220253210673 513.6831185970731 470.8282002070227 514.6950801115308 452.5695610221461 515.7070416259886 434.31092183726946 518.6846128631089 416.4641764331479 521.6621841002293 398.6174310290263 526.3283030502495 381.2988232867194 530.9944220002697 363.9802155444126 537.2789871977984 347.08282317833414 543.5635523953273 330.1854308122557 551.1027295741937 313.7724234022499 558.6419067530602 297.3594159922441 567.5695795746477 281.58920690258935 576.4972523962352 265.8189978129345 586.6585891315667 251.58089368486338 596.8199258668981 237.34278955679224 608.0222833177211 225.18317027588273 619.2246407685442 213.0235509949732 632.0105104854831 202.82983224924857 644.7963802024219 192.63611350352392 658.870944408631 184.04119492571976 672.94550861484 175.44627634791559 688.0043820974748 169.059491601555 703.0632555801096 162.6727068551944 718.8445691207378 158.27219583391394 734.6258826613658 153.87168481263348 750.7557599928482 151.4998549226564 766.8856373243306 149.12802503267932 783.1188107441121 148.84538119883564 799.3519841638938 148.56273736499196 815.1391470900244 150.13177790518083 830.9263100161551 151.7008184453697 846.0574257309909 155.11085844793672 861.1885414458267 158.52089845050375 875.5311903451907 163.48356814836146 889.8738392445548 168.44623784621916 903.0363042310416 175.1338000544706 916.1987692175286 181.8213622627221 928.1599132517447 189.91167549151032 940.1210572859609 198.00198872029858 950.7045238531715 207.59519106480354 961.2879904203821 217.18839340930853 970.6670953402108 228.14774094099334 980.0462002600397 239.10708847267816 988.1779361714182 251.00368697065716 996.3096720827969 262.9002854686361 1003.0755727598528 275.7367483547123 1009.8414734369088 288.57321124078845 1015.0713440806785 302.3129108165863 1020.3012147244481 316.05261039238417 1024.1105639301609 331.0031469946822 1027.919913135874 345.9536835969803 1030.1477171716115 361.2711907935337 1032.3755212073488 376.58869799008716 1033.117409191961 392.7503472198789 1033.8592971765734 408.91199644967065 1032.9213993831386 425.5453090670576 1031.983501589704 442.1786216844445 1029.4156895796127 458.8561343186826 1026.8478775695216 475.53364695292066 1022.3978934944453 492.2592158013513 1017.9479094193688 508.98478464978194 1011.2873914504651 525.7436901535059 1004.6268734815612 542.5025956572299 995.625855535204 558.9871010146642 986.6248375888467 575.4716063720983 975.4604764148546 590.9093595096621 964.2961152408624 606.3471126472258 951.1110748926963 620.7681184589328 937.9260345445301 635.1891242706398 923.0439975316415 647.5295522214763 908.1619605187527 659.8699801723127 891.92545631749 670.0680672568105 875.6889521162271 680.2661543413083 857.9511760663037 688.2074702788007 840.2134000163802 696.1487862162929 821.4668983396325 701.3518853440223 802.7203966628848 706.5549844717516 783.2592237881602 709.0388418062442 763.7980509134354 711.5226991407369 743.6516711553354 711.306587850589 723.5052913972355 711.0904765604412 703.4369043373617 707.8794360538998 683.368517277488 704.6683955473584 663.4528769721974 698.4090508917243 643.5372366669069 692.1497062360903 624.3560831350601 683.3426753282615 605.1749296032132 674.5356444204326 587.393369386844 662.9841716413832 569.6118091704749 651.4326988623338 553.6733676011406 637.7581933433084 537.7349260318063 624.0836878242831 523.9432579049691 608.4729687459896 510.15158977813184 592.8622496676962 499.31362432382633 575.6687844709586 488.4756588695208 558.475319274221 480.6682319086774 540.161375564302 472.86080494783397 521.8474318543831 467.8248202296116 502.9072550236033 462.7888355113892 483.96707819282346 460.86265057382263 465.16240721046466 458.936465636256 446.35773622810586 460.2269755520666 427.55163032346655 461.51748546787724 408.74552441882724 465.5320979240054 389.84515192638673 469.5467103801336 370.9447794339463 476.2547582427453 352.5787355578177 482.96280610535695 334.2126916816891 492.0416690205453 316.83228925893593 501.12053193573377 299.45188683618284 512.4001396648844 283.7714879939505 523.6797473940348 268.0910891517181 536.9479390589347 254.06205800296277 550.2161307238347 240.03302685420744 564.8707986011254 227.90088384053814 579.5254664784163 215.76874082686885 595.436711289052 205.2007944385748 611.3479560996876 194.63284805028078 628.0276448675588 185.83471033232328 644.70733363543 177.03657261436578 661.7585832610156 170.32005269605145 678.8098328866012 163.6035327777371 695.7866669717376 159.04704241499516 712.7635010568741 154.49055205225324 728.8320233307745 152.55832685234395 744.9005456046748 150.6261016524347 760.055718396032 150.60520863643686 775.2108911873892 150.584315620439 789.6087705348762 151.86268808559598 804.0066498823631 153.14106055075294 817.1895031816009 155.81274127934284 830.3723564808388 158.48442200793278 842.3757752941071 161.77171655142413 854.3791941073756 165.0590110949155 865.5270113550712 168.89591312738176 876.6748286027669 172.73281515984803 885.8520466894283 176.95984072770926 895.0292647760898 181.1868662955705 908.9400399072034 189.46724733435968 922.850815038317 197.74762837314884 928.0369997820432 200.83783367077473 933.2231845257693 203.9280389684006 933.7407059932762 204.32518348790197 934.258227460783 204.72232800740332 934.6656638716001 205.23178635686958 935.0731002824174 205.7412447063358 935.3467714132048 206.33340714255917 935.6204425439923 206.9255695787825 935.7444426157704 207.56601959314702 935.8684426875484 208.20646960751154 935.835564810319 208.85798421509094 935.8026869330897 209.50949882267034 935.6148419706224 210.13421196386082 935.426997008155 210.75892510505133 935.0951025184941 211.32052842273492 934.7632080288332 211.8821317404185 934.3065537353119 212.34798482338456 933.8498994417906 212.81383790635064 933.2950261134041 213.15686535152918 932.7401527850176 213.49989279670774 932.1193096856823 213.70015783286794 931.498466586347 213.90042286902815 930.8477371461665 213.94628608285893 930.1970077059862 213.99214929668972 929.5542123505982 213.8809451160484 928.9114169952102 213.76974093540704 928.3139150208715 213.50793255249738 927.7164130465328 213.2461241695877 927.716645998663 213.24626183887477 Z" fill="hsl(167, 37%, 20%)"></path></svg>